<svg xmlns="http://www.w3.org/2000/svg" fill="none" viewBox="0 0 206 42">
  <path fill="#fff" d="M1.03125 29.5225v-16H12.2812v3.5H5.375v2.75h6.2187v3.5H5.375v6.25H1.03125Zm16.76585 0h-4.6875l5.2813-16h5.9375l5.2812 16h-4.6875l-3.5-11.5938h-.125l-3.5 11.5938Zm-.875-6.3125h8.8125v3.25h-8.8125v-3.25Zm23.9905-4.6875c-.0417-.5209-.237-.9271-.586-1.2188-.3437-.2917-.8671-.4375-1.5703-.4375-.4479 0-.8151.0547-1.1015.1641-.2813.1041-.4896.2474-.625.4297-.1355.1823-.2058.3906-.211.625-.0104.1927.0235.3671.1016.5234.0833.151.2135.2891.3906.4141.1771.1198.4037.2291.6797.3281.276.0989.6042.1875.9844.2656l1.3125.2813c.8854.1875 1.6432.4349 2.2734.7421.6302.3073 1.1458.6693 1.5469 1.086.401.4114.6953.875.8828 1.3906.1927.5156.2917 1.0781.2969 1.6875-.0052 1.0521-.2683 1.9427-.7891 2.6719-.5208.7292-1.2656 1.2838-2.2344 1.664-.9635.3803-2.1224.5704-3.4765.5704-1.3906 0-2.6042-.2058-3.6406-.6172-1.0313-.4115-1.8334-1.0443-2.4063-1.8985-.5677-.8593-.8542-1.9583-.8594-3.2968h4.125c.0261.4895.1485.901.3672 1.2343.2188.3334.5261.586.9219.7578.401.1719.8776.2579 1.4297.2579.4635 0 .8515-.0573 1.164-.1719.3125-.1146.5495-.2735.711-.4766.1614-.2031.2448-.4349.25-.6953-.0052-.2448-.086-.4583-.2422-.6406-.1511-.1875-.4011-.3542-.75-.5-.349-.1511-.8203-.2917-1.4141-.4219l-1.5937-.3437c-1.4167-.3073-2.5339-.8204-3.3516-1.5391-.8125-.724-1.2161-1.7109-1.2109-2.9609-.0052-1.0157.2656-1.9037.8125-2.6641.5521-.7656 1.3151-1.362 2.289-1.7891.9792-.427 2.1016-.6406 3.3672-.6406 1.2917 0 2.4089.2162 3.3516.6484.9427.4323 1.6693 1.0417 2.1797 1.8282.5156.7812.776 1.6953.7812 2.7422h-4.1562Zm7.3498-1.5v-3.5h13.9063v3.5h-4.8125v12.5h-4.2813v-12.5h-4.8125Z"/>
  <path fill="url(#a)" fill-rule="evenodd" d="M74.4533 20.3289H72V0l27.7786.187676-4.7952 8.792804H80.6808c-.2019 0-.3963.07995-.5397.22202-.1415.14207-.2227.33481-.2227.53581v3.12519c0 .4146.3378.7507.7549.7507h11.6681l-3.5855 6.7147H80.611c-.1774 0-.3491.0707-.4756.1967-.1264.1259-.1981.2965-.1981.4744 0 .6122.0019 1.5119.0019 2.1237 0 .3699.3019.6699.6756.6699h6.2539L76.8669 42l.1434-11.1506-2.5061 3.5522-.0509-14.0727Z" clip-rule="evenodd"/>
  <path fill="#fff" fill-rule="evenodd" d="M72 20.3291V0h28l-5.0317 8.98067H81.0299v4.63353h5.752l-9.8206 19.9344V20.3291H72Z" clip-rule="evenodd"/>
  <path fill="#fff" d="M102.975 29.5225v-16h9.656v1.7187h-7.719v5.4063h7.219v1.7187h-7.219v5.4375h7.844v1.7188h-9.781Zm14.742-7.2188v7.2188h-1.844v-12h1.781v1.875h.157c.281-.6094.708-1.099 1.281-1.4688.573-.375 1.312-.5625 2.219-.5625.812 0 1.523.1667 2.132.5.61.3281 1.084.8281 1.422 1.5.339.6667.508 1.5104.508 2.5313v7.625h-1.844v-7.5c0-.9427-.244-1.6771-.734-2.2032-.49-.5312-1.162-.7968-2.016-.7968-.588 0-1.114.1276-1.578.3828-.458.2552-.82.6276-1.086 1.1172-.265.4895-.398 1.0833-.398 1.7812Zm15.556 7.4688c-1 0-1.882-.2526-2.648-.7579-.766-.5104-1.365-1.2291-1.797-2.1562-.432-.9323-.648-2.0339-.648-3.3047 0-1.2604.216-2.3542.648-3.2812.432-.9271 1.034-1.6433 1.805-2.1485.771-.5052 1.661-.7578 2.672-.7578.781 0 1.398.1302 1.851.3906.459.2552.808.5469 1.047.875.245.323.435.5886.57.7969h.157v-5.9062h1.843v16h-1.781v-1.8438h-.219c-.135.2188-.328.4948-.578.8281-.25.3282-.606.6224-1.07.8828-.464.2553-1.081.3829-1.852.3829Zm.25-1.6563c.74 0 1.365-.1927 1.875-.5781.511-.3906.899-.9297 1.165-1.6172.265-.6927.398-1.4922.398-2.3984 0-.8959-.13-1.6797-.391-2.3516-.26-.6771-.646-1.2031-1.156-1.5781-.51-.3802-1.141-.5703-1.891-.5703-.781 0-1.432.2005-1.953.6015-.515.3959-.903.9349-1.164 1.6172-.255.6771-.383 1.4375-.383 2.2813 0 .8541.131 1.6302.391 2.3281.266.6927.656 1.2448 1.172 1.6562.521.4063 1.167.6094 1.937.6094Zm8.883 5.9063v-16.5h1.781v1.9062h.219c.136-.2083.323-.4739.563-.7969.245-.3281.594-.6198 1.047-.875.458-.2604 1.078-.3906 1.859-.3906 1.01 0 1.901.2526 2.672.7578.771.5052 1.372 1.2214 1.805 2.1485.432.927.648 2.0208.648 3.2812 0 1.2708-.216 2.3724-.648 3.3047-.433.9271-1.032 1.6458-1.797 2.1562-.766.5053-1.649.7579-2.649.7579-.771 0-1.388-.1276-1.851-.3829-.464-.2604-.821-.5546-1.071-.8828-.25-.3333-.442-.6093-.578-.8281h-.156v6.3438h-1.844Zm1.813-10.5c0 .9062.133 1.7057.398 2.3984.266.6875.654 1.2266 1.164 1.6172.511.3854 1.136.5781 1.875.5781.771 0 1.414-.2031 1.93-.6094.521-.4114.911-.9635 1.172-1.6562.265-.6979.398-1.474.398-2.3281 0-.8438-.13-1.6042-.39-2.2813-.256-.6823-.644-1.2213-1.164-1.6172-.516-.401-1.164-.6015-1.946-.6015-.75 0-1.38.1901-1.89.5703-.511.375-.896.901-1.157 1.5781-.26.6719-.39 1.4557-.39 2.3516Zm16.469 6.25c-1.084 0-2.034-.2579-2.852-.7735-.813-.5156-1.448-1.237-1.906-2.164-.453-.9271-.68-2.0105-.68-3.25 0-1.25.227-2.3412.68-3.2735.458-.9323 1.093-1.6562 1.906-2.1719.818-.5156 1.768-.7734 2.852-.7734 1.083 0 2.031.2578 2.843.7734.818.5157 1.453 1.2396 1.907 2.1719.458.9323.687 2.0235.687 3.2735 0 1.2395-.229 2.3229-.687 3.25-.454.927-1.089 1.6484-1.907 2.164-.812.5156-1.76.7735-2.843.7735Zm0-1.6563c.822 0 1.499-.2109 2.031-.6328.531-.4219.924-.9766 1.179-1.6641.256-.6875.383-1.4323.383-2.2343 0-.8021-.127-1.5495-.383-2.2422-.255-.6927-.648-1.2526-1.179-1.6797-.532-.4271-1.209-.6406-2.031-.6406-.823 0-1.5.2135-2.032.6406-.531.4271-.924.987-1.179 1.6797-.256.6927-.383 1.4401-.383 2.2422 0 .802.127 1.5468.383 2.2343.255.6875.648 1.2422 1.179 1.6641.532.4219 1.209.6328 2.032.6328Zm8.251 1.4063v-12h1.844v12h-1.844Zm.938-14c-.359 0-.669-.1224-.93-.3672-.255-.2448-.383-.5391-.383-.8828 0-.3438.128-.6381.383-.8829.261-.2447.571-.3671.93-.3671.359 0 .667.1224.922.3671.26.2448.39.5391.39.8829 0 .3437-.13.638-.39.8828-.255.2448-.563.3672-.922.3672Zm6.127 6.7812v7.2188h-1.844v-12h1.781v1.875h.157c.281-.6094.708-1.099 1.281-1.4688.573-.375 1.312-.5625 2.219-.5625.812 0 1.523.1667 2.132.5.61.3281 1.084.8281 1.422 1.5.339.6667.508 1.5104.508 2.5313v7.625h-1.844v-7.5c0-.9427-.244-1.6771-.734-2.2032-.49-.5312-1.161-.7968-2.016-.7968-.588 0-1.114.1276-1.578.3828-.458.2552-.82.6276-1.086 1.1172-.265.4895-.398 1.0833-.398 1.7812Zm16.244-4.7812v1.5625h-6.219v-1.5625h6.219Zm-4.406-2.875h1.844V26.085c0 .5208.075.9114.226 1.1718.156.2552.354.4271.594.5157.245.0833.502.125.773.125.203 0 .37-.0105.5-.0313.131-.026.235-.0469.313-.0625l.375 1.6563c-.125.0468-.3.0937-.524.1406-.224.0521-.507.0781-.851.0781-.521 0-1.031-.112-1.531-.3359-.495-.224-.907-.5651-1.235-1.0235-.323-.4583-.484-1.0364-.484-1.7343V14.6475Zm15.465 5.5625-1.657.4687c-.104-.276-.257-.5443-.461-.8047-.197-.2656-.468-.4844-.812-.6562-.344-.1719-.784-.2578-1.32-.2578-.735 0-1.347.1692-1.836.5078-.485.3333-.727.7578-.727 1.2734 0 .4583.167.8203.5 1.0859.333.2657.854.487 1.563.6641l1.781.4375c1.073.2604 1.872.6589 2.398 1.1953.526.5313.789 1.2162.789 2.0547 0 .6875-.198 1.3021-.593 1.8438-.391.5416-.938.9687-1.641 1.2812-.703.3125-1.521.4688-2.453.4688-1.224 0-2.237-.2657-3.039-.7969-.802-.5313-1.31-1.3073-1.524-2.3281l1.75-.4375c.167.6458.482 1.1302.946 1.4531.468.3229 1.08.4844 1.836.4844.859 0 1.541-.1823 2.047-.5469.51-.3698.765-.8125.765-1.3281 0-.4167-.146-.7657-.437-1.0469-.292-.2865-.74-.5-1.344-.6406l-2-.4688c-1.099-.2604-1.906-.6641-2.422-1.2109-.51-.5521-.766-1.2422-.766-2.0703 0-.6771.19-1.2761.571-1.7969.385-.5208.909-.9297 1.57-1.2266.667-.2969 1.422-.4453 2.266-.4453 1.187 0 2.119.2604 2.797.7813.682.5208 1.166 1.2083 1.453 2.0625Z"/>
  <defs>
    <linearGradient id="a" x1="76.8669" x2="92.21" y1="41.9981" y2="13.5424" gradientUnits="userSpaceOnUse">
      <stop stop-color="#00DFFF"/>
      <stop offset="1" stop-color="#096EEB"/>
    </linearGradient>
  </defs>
</svg>
