<?xml version="1.0" encoding="utf-8"?>
<!-- Generator: Adobe Illustrator 24.1.3, SVG Export Plug-In . SVG Version: 6.00 Build 0)  -->
<svg version="1.1" id="Layer_1" xmlns="http://www.w3.org/2000/svg" xmlns:xlink="http://www.w3.org/1999/xlink" x="0px" y="0px"
	 viewBox="0 0 512 512" style="enable-background:new 0 0 512 512;" xml:space="preserve">
<style type="text/css">
	.st0{fill-rule:evenodd;clip-rule:evenodd;fill:url(#SVGID_1_);}
	.st1{fill-rule:evenodd;clip-rule:evenodd;fill:#FFFFFF;}
</style>
<g>
	<rect x="0.5" y="0.5" width="511" height="511"/>
	<path d="M511,1v510H1V1H511 M512,0H0v512h512V0L512,0z"/>
</g>
<g>
	
		<linearGradient id="SVGID_1_" gradientUnits="userSpaceOnUse" x1="94.3945" y1="15.8547" x2="237.2315" y2="280.7637" gradientTransform="matrix(1 0 0 -1 0 426.1102)">
		<stop  offset="0" style="stop-color:#00DFFF"/>
		<stop  offset="1" style="stop-color:#096EEB"/>
	</linearGradient>
	<path class="st0" d="M169.8,261.2H147V72l258.6,1.7L361,155.6H227.7c-1.9,0-3.7,0.8-5.1,2.1c-1.3,1.3-2.1,3.1-2.1,5v29.2
		c0,3.9,3.1,7,7,7h108.6l-33.4,62.5h-75.9c-1.6,0-3.3,0.6-4.5,1.9c-1.2,1.2-1.9,2.7-1.9,4.5c0,5.7,0,14.1,0,19.8
		c0,3.4,2.8,6.3,6.4,6.3H285L192.2,463l1.3-103.8l-23.4,33.1C170.3,392.3,169.8,261.2,169.8,261.2z"/>
	<path class="st1" d="M147,261.2V72h260.6l-46.8,83.6H231v43.1h53.6l-91.4,185.7V261.2H147z"/>
</g>
</svg>
